<mxfile host="app.diagrams.net" modified="2024-05-24T02:30:25.611Z" agent="Mozilla/5.0 (X11; Linux x86_64; rv:103.0) Gecko/20100101 Firefox/103.0" version="24.4.7" etag="2MKx4HH91Lof5tnnIbpd" type="github">
  <diagram name="Page-1" id="zCA8seb03qqE_2YIaH4h">
    <mxGraphModel>
      <root>
        <mxCell id="0" />
        <mxCell id="1" parent="0" />
      </root>
    </mxGraphModel>
  </diagram>
</mxfile>
